<?xml version="1.0" encoding="UTF-8"?>
<!DOCTYPE svg PUBLIC "-//W3C//DTD SVG 1.1//EN" "http://www.w3.org/Graphics/SVG/1.1/DTD/svg11.dtd">
<svg xmlns="http://www.w3.org/2000/svg" version="1.1" width="635px" height="643px" style="shape-rendering:geometricPrecision; text-rendering:geometricPrecision; image-rendering:optimizeQuality; fill-rule:evenodd; clip-rule:evenodd" xmlns:xlink="http://www.w3.org/1999/xlink">
<g><path style="opacity:0.925" fill="#0072b7" d="M 309.5,41.5 C 317.181,41.7233 324.847,42.2233 332.5,43C 334.192,44.4007 334.859,46.2341 334.5,48.5C 332.409,48.3184 330.409,48.6518 328.5,49.5C 327.059,57.1179 326.559,64.7846 327,72.5C 333.5,65.3333 340,58.1667 346.5,51C 340.879,50.8236 339.379,48.3236 342,43.5C 349.482,44.4245 357.315,45.0911 365.5,45.5C 365.5,47.5 365.5,49.5 365.5,51.5C 363.5,51.5 361.5,51.5 359.5,51.5C 358.907,64.8705 357.907,78.2038 356.5,91.5C 362.342,91.1636 363.842,93.4969 361,98.5C 353.188,97.5256 345.022,96.859 336.5,96.5C 336.833,94.5 337.167,92.5 337.5,90.5C 339.766,90.8588 341.599,90.1922 343,88.5C 343.889,81.1742 344.222,73.8409 344,66.5C 337.5,73.6667 331,80.8333 324.5,88C 326.436,88.813 328.436,89.313 330.5,89.5C 330.5,91.5 330.5,93.5 330.5,95.5C 321.779,95.2177 313.112,94.3843 304.5,93C 305.406,91.3005 305.739,89.4672 305.5,87.5C 307.467,87.7394 309.301,87.4061 311,86.5C 311.893,74.1155 313.06,61.7822 314.5,49.5C 312.725,48.0426 310.725,46.8759 308.5,46C 309.38,44.6439 309.714,43.1439 309.5,41.5 Z"/></g>
<g><path style="opacity:0.92" fill="#0072b7" d="M 283.5,42.5 C 288.895,41.5548 290.561,43.5548 288.5,48.5C 287.264,49.2458 285.93,49.5792 284.5,49.5C 286.554,62.6014 289.054,75.6014 292,88.5C 294.041,87.5769 296.208,87.2436 298.5,87.5C 299.38,94.1491 299.546,100.816 299,107.5C 296.281,108.444 293.448,108.777 290.5,108.5C 289.5,104.5 288.5,100.5 287.5,96.5C 273.979,98.6372 260.479,100.971 247,103.5C 244.5,103.667 243.333,102.5 243.5,100C 244.089,97.367 245.756,96.2003 248.5,96.5C 246.609,83.4845 244.609,70.4845 242.5,57.5C 237.505,58.4177 235.172,56.4177 235.5,51.5C 243.017,50.3303 250.517,48.997 258,47.5C 259.107,47.5852 260.107,47.9186 261,48.5C 261.798,50.2588 261.631,51.9255 260.5,53.5C 258.667,54.0521 257,54.8855 255.5,56C 258.149,68.4116 260.482,80.9116 262.5,93.5C 267.537,93.0925 272.537,92.4258 277.5,91.5C 275.443,78.8262 273.277,66.1595 271,53.5C 269.211,51.771 267.044,51.1043 264.5,51.5C 264.5,49.8333 264.5,48.1667 264.5,46.5C 271.02,45.4741 277.353,44.1407 283.5,42.5 Z"/></g>
<g><path style="opacity:0.91" fill="#0072b7" d="M 399.5,55.5 C 404.211,56.1258 408.711,57.4592 413,59.5C 413.167,75.8435 413.667,92.1769 414.5,108.5C 418.749,110.01 419.249,112.677 416,116.5C 408.297,114.43 400.464,111.764 392.5,108.5C 392.886,104.15 395.219,102.483 399.5,103.5C 399.808,101.076 399.474,98.7427 398.5,96.5C 393.945,94.9267 389.445,93.26 385,91.5C 383.833,93.3333 382.667,95.1667 381.5,97C 385.571,98.7131 386.571,101.546 384.5,105.5C 377.174,104.169 370.174,101.836 363.5,98.5C 363.926,94.3029 366.26,92.4695 370.5,93C 380.406,80.6054 390.073,68.1054 399.5,55.5 Z M 399.5,70.5 C 400.653,76.6529 400.82,82.9863 400,89.5C 396.401,88.1906 392.901,86.6906 389.5,85C 393.054,80.2863 396.387,75.453 399.5,70.5 Z"/></g>
<g><path style="opacity:0.916" fill="#0072b7" d="M 199.5,64.5 C 215.185,62.7589 225.352,69.4256 230,84.5C 234.958,105.373 226.791,117.04 205.5,119.5C 192.407,117.245 184.241,109.578 181,96.5C 177.686,80.1066 183.853,69.44 199.5,64.5 Z M 199.5,71.5 C 202.769,71.8844 205.603,73.2177 208,75.5C 215.556,84.4994 218.889,94.8328 218,106.5C 214.409,112.016 209.909,112.849 204.5,109C 198.332,100.995 194.332,91.9949 192.5,82C 193.076,77.2691 195.41,73.7691 199.5,71.5 Z"/></g>
<g><path style="opacity:0.906" fill="#0072b7" d="M 445.5,73.5 C 447.74,73.572 450.073,74.4053 452.5,76C 457.887,79.0201 462.887,82.5201 467.5,86.5C 466.04,90.4677 463.374,91.4677 459.5,89.5C 452.016,99.7878 445.016,110.454 438.5,121.5C 442.541,124.61 446.707,127.61 451,130.5C 457.708,119.582 464.542,108.749 471.5,98C 466.079,94.7119 466.246,91.8785 472,89.5C 478.349,92.5938 484.516,96.0938 490.5,100C 491.308,105.161 489.141,106.661 484,104.5C 476.917,114.997 470.084,125.664 463.5,136.5C 464.865,137.941 466.365,139.274 468,140.5C 468.667,141.167 468.667,141.833 468,142.5C 464.542,148.167 460.209,152.834 455,156.5C 452.106,156.305 449.939,154.972 448.5,152.5C 450.904,148.718 452.404,144.718 453,140.5C 441.252,132.709 429.418,125.042 417.5,117.5C 419.183,113.515 422.016,112.515 426,114.5C 433.083,104.003 439.916,93.3363 446.5,82.5C 445.352,80.8513 444.019,79.3513 442.5,78C 443.386,76.3853 444.386,74.8853 445.5,73.5 Z"/></g>
<g><path style="opacity:0.897" fill="#0072b7" d="M 156.5,88.5 C 157.688,89.0476 158.855,89.3809 160,89.5C 162.167,93.1667 164.333,96.8333 166.5,100.5C 164.693,102.904 162.359,104.57 159.5,105.5C 156.553,103.729 153.719,101.729 151,99.5C 144.309,102.886 141.975,108.219 144,115.5C 148.039,126.205 155.372,133.539 166,137.5C 174.36,134.946 176.526,129.779 172.5,122C 175.101,118.75 178.267,117.916 182,119.5C 183.833,122.5 185.667,125.5 187.5,128.5C 180.953,139.189 171.453,145.189 159,146.5C 142.749,143.914 133.582,134.414 131.5,118C 131.976,107.531 136.643,99.5308 145.5,94C 149.259,92.1207 152.925,90.2874 156.5,88.5 Z"/></g>
<g><path style="opacity:0.902" fill="#0072b7" d="M 506.5,115.5 C 507.873,115.343 509.207,115.51 510.5,116C 515.315,121.65 520.315,127.15 525.5,132.5C 523.851,133.648 522.351,134.981 521,136.5C 519.119,135.79 516.952,135.29 514.5,135C 508.833,140 503.167,145 497.5,150C 507.179,149.878 516.845,149.212 526.5,148C 526.957,147.586 527.291,147.086 527.5,146.5C 524.611,141.203 526.277,139.036 532.5,140C 536.982,145.316 541.648,150.483 546.5,155.5C 544.243,159.815 541.243,160.482 537.5,157.5C 528.017,165.815 518.684,174.315 509.5,183C 513.641,188.218 512.307,190.884 505.5,191C 500.867,185.365 495.867,180.032 490.5,175C 493.223,171.119 496.39,170.619 500,173.5C 505.929,168.116 511.762,162.616 517.5,157C 507.822,157.001 498.155,157.501 488.5,158.5C 489.36,160.816 489.86,163.149 490,165.5C 488.192,167.396 486.025,167.896 483.5,167C 478.278,162.281 473.612,157.115 469.5,151.5C 470.313,150.186 471.313,149.019 472.5,148C 475.073,147.572 477.406,147.906 479.5,149C 488.5,140.667 497.5,132.333 506.5,124C 502.596,121.073 502.596,118.24 506.5,115.5 Z"/></g>
<g><path style="opacity:0.902" fill="#0072b7" d="M 108.5,126.5 C 109.397,127.598 110.23,127.598 111,126.5C 114.5,130 118,133.5 121.5,137C 119.591,139.25 117.425,141.084 115,142.5C 111.652,141.391 108.485,140.224 105.5,139C 98.8599,144.425 98.0266,150.592 103,157.5C 108.112,164.289 114.612,169.123 122.5,172C 129.274,173.081 133.607,170.247 135.5,163.5C 134.167,160.833 132.833,158.167 131.5,155.5C 132.918,153.077 134.918,151.411 137.5,150.5C 141.428,152.758 144.762,155.758 147.5,159.5C 143.957,168.769 137.957,175.936 129.5,181C 107.306,185.906 93.9725,177.239 89.5,155C 90.0917,148.556 92.2584,142.722 96,137.5C 99.9576,133.463 104.124,129.796 108.5,126.5 Z"/></g>
<g><path style="opacity:0.804" fill="#bc9d60" d="M 314.5,132.5 C 315.496,132.414 316.329,132.748 317,133.5C 320.167,139.833 323.333,146.167 326.5,152.5C 334.457,154.351 342.457,156.018 350.5,157.5C 345.015,163.485 339.348,169.319 333.5,175C 334.991,182.441 336.324,189.941 337.5,197.5C 329.961,194.733 322.628,191.399 315.5,187.5C 308.448,191.862 301.115,195.362 293.5,198C 295.481,190.283 296.647,182.45 297,174.5C 291.318,168.985 285.818,163.319 280.5,157.5C 288.504,156.047 296.504,154.547 304.5,153C 308.245,146.344 311.578,139.511 314.5,132.5 Z M 316.5,138.5 C 318.908,144.546 321.241,150.712 323.5,157C 321.212,159.743 319.045,162.577 317,165.5C 316.5,156.506 316.334,147.506 316.5,138.5 Z M 312.5,166.5 C 303.155,163.774 293.822,160.941 284.5,158C 292.188,157.169 299.855,157.335 307.5,158.5C 309.689,160.887 311.356,163.553 312.5,166.5 Z M 344.5,160.5 C 339.519,164.636 334.352,168.636 329,172.5C 325.653,170.94 322.153,169.773 318.5,169C 327.019,165.66 335.685,162.827 344.5,160.5 Z M 297.5,191.5 C 298.688,185.767 300.188,180.1 302,174.5C 305.725,172.701 309.558,171.534 313.5,171C 308.268,177.993 302.934,184.826 297.5,191.5 Z M 316.5,171.5 C 322.36,178.497 327.527,185.83 332,193.5C 327,190.167 322,186.833 317,183.5C 316.501,179.514 316.334,175.514 316.5,171.5 Z"/></g>
<g><path style="opacity:0.953" fill="#bd9d61" d="M 246.5,275.5 C 228.833,276.833 211.167,276.833 193.5,275.5C 196.96,275.475 200.294,274.808 203.5,273.5C 203.113,272.28 202.28,271.613 201,271.5C 189.135,274.832 177.635,273.999 166.5,269C 160.478,263.789 158.312,257.289 160,249.5C 171.945,256.194 184.778,259.194 198.5,258.5C 198.5,256.833 198.5,255.167 198.5,253.5C 187.244,253.519 176.577,251.019 166.5,246C 157.143,238.261 153.977,228.427 157,216.5C 157.29,214.956 157.956,213.623 159,212.5C 169.218,225.027 182.051,233.693 197.5,238.5C 198.231,236.401 198.231,234.401 197.5,232.5C 185.856,225.357 176.356,216.023 169,204.5C 165.533,193.746 168.033,184.746 176.5,177.5C 191.144,202.985 209.977,224.985 233,243.5C 233.968,250.486 234.635,257.486 235,264.5C 237.511,268.182 241.011,270.515 245.5,271.5C 246.429,272.689 246.762,274.022 246.5,275.5 Z"/></g>
<g><path style="opacity:0.949" fill="#bc9d60" d="M 437.5,276.5 C 419.833,276.5 402.167,276.5 384.5,276.5C 384.5,274.833 384.5,273.167 384.5,271.5C 396.632,269.082 400.632,261.915 396.5,250C 396.615,247.268 397.448,244.768 399,242.5C 409.321,234.178 418.988,225.178 428,215.5C 437.388,203.111 446.388,190.445 455,177.5C 463.426,185.226 465.76,194.559 462,205.5C 454.952,216.882 445.618,225.882 434,232.5C 433.505,234.473 433.338,236.473 433.5,238.5C 440.071,237.381 446.071,234.881 451.5,231C 459.748,226.216 466.748,220.049 472.5,212.5C 479.259,230.747 473.592,243.247 455.5,250C 448.315,252.142 440.982,253.309 433.5,253.5C 433.5,255.167 433.5,256.833 433.5,258.5C 446.983,258.963 459.65,255.963 471.5,249.5C 472.943,262.904 466.943,270.738 453.5,273C 445.749,273.805 438.082,273.305 430.5,271.5C 429.09,271.868 428.09,272.701 427.5,274C 431.038,274.535 434.372,275.368 437.5,276.5 Z"/></g>
<g><path style="opacity:0.916" fill="#0072b7" d="M 547.5,181.5 C 556.888,179.45 564.054,182.45 569,190.5C 572.578,197.991 576.412,205.324 580.5,212.5C 579.086,213.624 577.586,214.624 576,215.5C 573.805,214.441 571.305,213.607 568.5,213C 558.994,218.587 549.327,223.92 539.5,229C 538.939,231.518 538.606,234.018 538.5,236.5C 536.548,237.814 534.715,238.48 533,238.5C 528.914,231.997 525.081,225.33 521.5,218.5C 522.797,216.6 524.63,215.6 527,215.5C 528.855,216.244 530.521,217.244 532,218.5C 535.898,216.467 539.732,214.3 543.5,212C 542.5,210.333 541.5,208.667 540.5,207C 532.804,207.041 525.138,207.375 517.5,208C 513.614,204.919 510.948,200.919 509.5,196C 510.609,194.139 512.275,193.305 514.5,193.5C 521.883,195.034 529.383,196.034 537,196.5C 537.626,189.391 541.126,184.391 547.5,181.5 Z M 556.5,191.5 C 560.887,192.717 563.887,195.55 565.5,200C 560.584,202.707 555.751,205.541 551,208.5C 548.185,205.722 547.185,202.389 548,198.5C 550.441,195.546 553.275,193.213 556.5,191.5 Z"/></g>
<g><path style="opacity:0.899" fill="#0072b7" d="M 59.5,187.5 C 75.7952,189.577 91.9618,192.244 108,195.5C 111.389,191.736 114.889,191.569 118.5,195C 115.301,201.231 111.968,207.397 108.5,213.5C 105.324,214.997 102.658,214.33 100.5,211.5C 101.074,209.941 101.74,208.441 102.5,207C 100.567,206.749 98.7337,206.249 97,205.5C 95.9196,207.996 94.5862,210.33 93,212.5C 91.0863,215.298 90.0863,218.298 90,221.5C 91.9683,225.223 93.6349,225.223 95,221.5C 97.7448,221.444 100.245,222.611 102.5,225C 99.3738,230.085 96.3738,235.251 93.5,240.5C 87.7908,241.965 85.2908,239.632 86,233.5C 75.6667,221.833 65.3333,210.167 55,198.5C 56.4286,194.953 57.9286,191.286 59.5,187.5 Z M 69.5,200.5 C 75.9053,201.214 82.2387,202.381 88.5,204C 86.6976,207.3 84.6976,210.467 82.5,213.5C 77.8123,209.479 73.479,205.146 69.5,200.5 Z"/></g>
<g><path style="opacity:0.961" fill="#bd9d61" d="M 315.5,275.5 C 304.167,276.833 292.833,276.833 281.5,275.5C 280.793,268.802 279.627,262.135 278,255.5C 276.99,251.157 274.49,247.99 270.5,246C 265.547,245.005 260.547,244.338 255.5,244C 256.833,242.667 258.167,241.333 259.5,240C 252.994,238.019 246.328,236.853 239.5,236.5C 240.025,228.974 244.025,224.641 251.5,223.5C 253.05,219.386 256.05,217.22 260.5,217C 265.88,216.404 271.213,216.738 276.5,218C 285.15,220.273 293.816,222.44 302.5,224.5C 300.449,227.041 297.783,228.541 294.5,229C 307.278,241.733 314.278,257.233 315.5,275.5 Z"/></g>
<g><path style="opacity:0.959" fill="#bc9d60" d="M 350.5,276.5 C 338.988,276.828 327.654,276.495 316.5,275.5C 317.288,257.428 323.955,241.928 336.5,229C 333.343,228.258 330.677,226.758 328.5,224.5C 340.817,220.962 353.317,218.296 366,216.5C 369.746,216.325 373.246,217.158 376.5,219C 378.607,220.264 379.607,222.097 379.5,224.5C 387.167,224.833 391.167,228.833 391.5,236.5C 385.006,236.879 378.673,238.046 372.5,240C 373.833,241.333 375.167,242.667 376.5,244C 369.247,243.589 362.581,245.256 356.5,249C 352.307,257.642 350.307,266.808 350.5,276.5 Z"/></g>
<g><path style="opacity:0.96" fill="#e6e6e6" d="M 181.5,275.5 C 218.966,279.746 256.633,283.413 294.5,286.5C 281.01,287.496 267.344,287.829 253.5,287.5C 253.5,293.5 253.5,299.5 253.5,305.5C 257.644,305.33 261.644,305.997 265.5,307.5C 266.497,314.134 266.83,320.8 266.5,327.5C 257.833,327.5 249.167,327.5 240.5,327.5C 240.768,315.474 241.435,303.474 242.5,291.5C 231.163,289.777 219.829,287.944 208.5,286C 186.401,283.868 167.068,290.034 150.5,304.5C 136.126,303.496 121.793,302.163 107.5,300.5C 107.662,302.527 107.495,304.527 107,306.5C 106.503,303.854 106.336,301.187 106.5,298.5C 106.5,290.833 106.5,283.167 106.5,275.5C 131.5,275.5 156.5,275.5 181.5,275.5 Z"/></g>
<g><path style="opacity:0.988" fill="#eeeeee" d="M 181.5,275.5 C 185.5,275.5 189.5,275.5 193.5,275.5C 211.167,276.833 228.833,276.833 246.5,275.5C 258.167,275.5 269.833,275.5 281.5,275.5C 292.833,276.833 304.167,276.833 315.5,275.5C 315.833,275.5 316.167,275.5 316.5,275.5C 327.654,276.495 338.988,276.828 350.5,276.5C 361.833,276.5 373.167,276.5 384.5,276.5C 402.167,276.5 419.833,276.5 437.5,276.5C 467.167,276.5 496.833,276.5 526.5,276.5C 526.5,283.833 526.5,291.167 526.5,298.5C 526.5,308.167 526.5,317.833 526.5,327.5C 517.833,327.5 509.167,327.5 500.5,327.5C 491.567,299.1 472.067,285.1 442,285.5C 412.23,286.457 392.063,300.791 381.5,328.5C 374.833,328.5 368.167,328.5 361.5,328.5C 364.998,306.522 355.998,293.022 334.5,288C 321.204,286.668 307.871,286.168 294.5,286.5C 256.633,283.413 218.966,279.746 181.5,275.5 Z"/></g>
<g><path style="opacity:1" fill="#8b9ea9" d="M 500.5,327.5 C 500.5,327.833 500.5,328.167 500.5,328.5C 504.498,346.883 504.165,365.217 499.5,383.5C 489.052,411.99 468.552,426.324 438,426.5C 408.012,426.316 388.846,411.982 380.5,383.5C 377.526,365.076 377.859,346.742 381.5,328.5C 392.063,300.791 412.23,286.457 442,285.5C 472.067,285.1 491.567,299.1 500.5,327.5 Z"/></g>
<g><path style="opacity:1" fill="#8d9faa" d="M 294.5,286.5 C 307.871,286.168 321.204,286.668 334.5,288C 355.998,293.022 364.998,306.522 361.5,328.5C 358.924,337.757 353.59,345.09 345.5,350.5C 362.082,355.357 370.749,366.357 371.5,383.5C 370.272,404.235 359.606,417.402 339.5,423C 329.931,424.893 320.264,425.726 310.5,425.5C 291.173,424.754 271.84,424.421 252.5,424.5C 252.5,418.5 252.5,412.5 252.5,406.5C 257.202,406.05 261.868,405.383 266.5,404.5C 266.5,397.5 266.5,390.5 266.5,383.5C 267.497,365.341 267.83,347.008 267.5,328.5C 234.833,328.5 202.167,328.5 169.5,328.5C 166.42,347.002 167.087,365.335 171.5,383.5C 174.415,394.197 180.748,402.03 190.5,407C 195.833,407.667 201.167,407.667 206.5,407C 209.548,406.394 212.048,404.894 214,402.5C 216.513,396.145 219.013,389.812 221.5,383.5C 228.5,383.5 235.5,383.5 242.5,383.5C 241.644,395.489 240.977,407.489 240.5,419.5C 231.412,420.884 222.412,422.718 213.5,425C 193.225,429.43 174.225,426.43 156.5,416C 145.049,407.736 137.383,396.903 133.5,383.5C 129.207,365.013 129.54,346.68 134.5,328.5C 138.593,319.728 143.926,311.728 150.5,304.5C 167.068,290.034 186.401,283.868 208.5,286C 219.829,287.944 231.163,289.777 242.5,291.5C 241.435,303.474 240.768,315.474 240.5,327.5C 249.167,327.5 257.833,327.5 266.5,327.5C 266.83,320.8 266.497,314.134 265.5,307.5C 261.644,305.997 257.644,305.33 253.5,305.5C 253.5,299.5 253.5,293.5 253.5,287.5C 267.344,287.829 281.01,287.496 294.5,286.5 Z"/></g>
<g><path style="opacity:1" fill="#fdfdfd" d="M 186.5,289.5 C 204.11,288.541 221.443,290.207 238.5,294.5C 238.208,304.835 237.875,315.168 237.5,325.5C 231.463,325.829 225.463,325.496 219.5,324.5C 217.479,318.561 215.645,312.561 214,306.5C 212.269,304.383 210.102,302.883 207.5,302C 188.892,298.218 176.058,305.052 169,322.5C 165.404,332.168 163.904,342.168 164.5,352.5C 163.405,370.795 167.905,387.462 178,402.5C 183.709,408.892 190.876,411.559 199.5,410.5C 204.399,410.805 209.066,409.972 213.5,408C 217.682,401.644 221.015,394.811 223.5,387.5C 228.792,386.505 234.125,386.172 239.5,386.5C 238.686,396.483 238.019,406.483 237.5,416.5C 227.497,418.668 217.497,420.834 207.5,423C 186.43,426.402 167.763,421.402 151.5,408C 135.798,389.374 129.965,367.874 134,343.5C 140.566,314.768 158.066,296.768 186.5,289.5 Z"/></g>
<g><path style="opacity:1" fill="#fefefe" d="M 292.5,289.5 C 306.201,289.189 319.868,289.689 333.5,291C 356.642,297.112 364.142,311.612 356,334.5C 351.097,343.743 343.597,349.577 333.5,352C 365.482,356.462 375.315,373.629 363,403.5C 357,412.093 348.833,417.593 338.5,420C 329.944,421.919 321.277,422.752 312.5,422.5C 293.84,421.744 275.174,421.411 256.5,421.5C 256.176,417.445 256.509,413.445 257.5,409.5C 261.744,408.293 266.077,407.626 270.5,407.5C 270.5,373.167 270.5,338.833 270.5,304.5C 265.773,304.221 261.107,303.554 256.5,302.5C 256.5,298.5 256.5,294.5 256.5,290.5C 268.678,290.828 280.678,290.495 292.5,289.5 Z"/></g>
<g><path style="opacity:1" fill="#fdfdfe" d="M 434.5,288.5 C 473.33,286.137 495.163,304.137 500,342.5C 502.767,364.844 497.767,385.177 485,403.5C 465.329,423.038 442.162,428.538 415.5,420C 394.825,410.507 383.658,394.34 382,371.5C 378.301,349.333 382.634,329 395,310.5C 405.502,298.118 418.669,290.785 434.5,288.5 Z"/></g>
<g><path style="opacity:0.998" fill="#d9d9d9" d="M 94.5,298.5 C 98.5,298.5 102.5,298.5 106.5,298.5C 106.336,301.187 106.503,303.854 107,306.5C 107.495,304.527 107.662,302.527 107.5,300.5C 121.793,302.163 136.126,303.496 150.5,304.5C 143.926,311.728 138.593,319.728 134.5,328.5C 125.5,328.5 116.5,328.5 107.5,328.5C 107.5,329.833 107.5,331.167 107.5,332.5C 104.167,332.5 100.833,332.5 97.5,332.5C 96.1466,321.201 95.1466,309.867 94.5,298.5 Z"/></g>
<g><path style="opacity:1" fill="#8aa0ad" d="M 297.5,301.5 C 327.625,297.125 338.125,309.459 329,338.5C 326.453,343.714 322.286,346.547 316.5,347C 310.175,347.5 303.842,347.666 297.5,347.5C 297.5,332.167 297.5,316.833 297.5,301.5 Z"/></g>
<g><path style="opacity:1" fill="#8da1ad" d="M 435.5,300.5 C 450.541,299.703 460.707,306.37 466,320.5C 472.219,344.255 471.886,367.922 465,391.5C 459.167,407.497 448,413.664 431.5,410C 423.691,406.574 418.524,400.741 416,392.5C 413.837,386.68 412.504,380.68 412,374.5C 411.333,361.833 411.333,349.167 412,336.5C 413.478,325.718 417.478,316.052 424,307.5C 427.514,304.5 431.347,302.167 435.5,300.5 Z"/></g>
<g><path style="opacity:0.987" fill="#eaeaea" d="M 538.5,298.5 C 550.167,298.5 561.833,298.5 573.5,298.5C 571.363,306.242 569.03,313.908 566.5,321.5C 556.478,322.369 546.478,323.369 536.5,324.5C 537.299,315.849 537.966,307.183 538.5,298.5 Z"/></g>
<g><path style="opacity:1" fill="#dcdcdd" d="M 190.5,304.5 C 197.391,303.901 204.058,304.735 210.5,307C 213.039,313.654 215.039,320.487 216.5,327.5C 201.5,327.5 186.5,327.5 171.5,327.5C 173.848,316.49 180.181,308.823 190.5,304.5 Z"/></g>
<g><path style="opacity:1" fill="#e5e5e5" d="M 433.5,304.5 C 450.883,302.538 461.216,310.205 464.5,327.5C 448.833,327.5 433.167,327.5 417.5,327.5C 419.645,317.521 424.978,309.855 433.5,304.5 Z"/></g>
<g><path style="opacity:1" fill="#dfe0e0" d="M 300.5,304.5 C 308.035,303.927 315.368,304.761 322.5,307C 327.954,312.706 329.954,319.539 328.5,327.5C 319.167,327.5 309.833,327.5 300.5,327.5C 300.5,319.833 300.5,312.167 300.5,304.5 Z"/></g>
<g><path style="opacity:0.983" fill="#e3e3e3" d="M 94.5,298.5 C 95.1466,309.867 96.1466,321.201 97.5,332.5C 88.5,332.5 79.5,332.5 70.5,332.5C 66.4627,321.386 62.7961,310.052 59.5,298.5C 71.1667,298.5 82.8333,298.5 94.5,298.5 Z"/></g>
<g><path style="opacity:0.986" fill="#d7d8d8" d="M 526.5,298.5 C 530.5,298.5 534.5,298.5 538.5,298.5C 537.966,307.183 537.299,315.849 536.5,324.5C 546.478,323.369 556.478,322.369 566.5,321.5C 565.336,325.659 564.003,329.659 562.5,333.5C 550.678,332.505 538.678,332.172 526.5,332.5C 526.5,331.167 526.5,329.833 526.5,328.5C 517.833,328.5 509.167,328.5 500.5,328.5C 500.5,328.167 500.5,327.833 500.5,327.5C 509.167,327.5 517.833,327.5 526.5,327.5C 526.5,317.833 526.5,308.167 526.5,298.5 Z"/></g>
<g><path style="opacity:1" fill="#016fb8" d="M 134.5,328.5 C 129.54,346.68 129.207,365.013 133.5,383.5C 124.833,383.5 116.167,383.5 107.5,383.5C 107.586,382.504 107.252,381.671 106.5,381C 95.1716,380.5 83.8382,380.333 72.5,380.5C 74.3921,373.655 76.3921,366.821 78.5,360C 75.5203,350.897 72.8536,341.731 70.5,332.5C 79.5,332.5 88.5,332.5 97.5,332.5C 100.833,332.5 104.167,332.5 107.5,332.5C 107.5,331.167 107.5,329.833 107.5,328.5C 116.5,328.5 125.5,328.5 134.5,328.5 Z"/></g>
<g><path style="opacity:1" fill="#0171ba" d="M 266.5,383.5 C 258.5,383.5 250.5,383.5 242.5,383.5C 235.5,383.5 228.5,383.5 221.5,383.5C 204.833,383.5 188.167,383.5 171.5,383.5C 167.087,365.335 166.42,347.002 169.5,328.5C 202.167,328.5 234.833,328.5 267.5,328.5C 267.83,347.008 267.497,365.341 266.5,383.5 Z"/></g>
<g><path style="opacity:1" fill="#0272ba" d="M 300.5,328.5 C 309.857,328.168 319.19,328.502 328.5,329.5C 328.067,336.897 324.4,341.73 317.5,344C 311.843,344.499 306.176,344.666 300.5,344.5C 300.5,339.167 300.5,333.833 300.5,328.5 Z"/></g>
<g><path style="opacity:1" fill="#0672ba" d="M 361.5,328.5 C 368.167,328.5 374.833,328.5 381.5,328.5C 377.859,346.742 377.526,365.076 380.5,383.5C 377.5,383.5 374.5,383.5 371.5,383.5C 370.749,366.357 362.082,355.357 345.5,350.5C 353.59,345.09 358.924,337.757 361.5,328.5 Z"/></g>
<g><path style="opacity:1" fill="#0171ba" d="M 463.5,383.5 C 447.833,383.5 432.167,383.5 416.5,383.5C 413.852,365.172 413.852,346.839 416.5,328.5C 432.833,328.5 449.167,328.5 465.5,328.5C 467.389,342.102 467.889,355.769 467,369.5C 466.317,374.44 465.15,379.107 463.5,383.5 Z"/></g>
<g><path style="opacity:1" fill="#016fb8" d="M 500.5,328.5 C 509.167,328.5 517.833,328.5 526.5,328.5C 526.5,329.833 526.5,331.167 526.5,332.5C 538.678,332.172 550.678,332.505 562.5,333.5C 560.07,342.383 557.403,351.216 554.5,360C 556.608,366.822 558.608,373.655 560.5,380.5C 549.167,380.5 537.833,380.5 526.5,380.5C 526.5,381.5 526.5,382.5 526.5,383.5C 517.5,383.5 508.5,383.5 499.5,383.5C 504.165,365.217 504.498,346.883 500.5,328.5 Z"/></g>
<g><path style="opacity:1" fill="#899da9" d="M 297.5,359.5 C 305.507,359.334 313.507,359.5 321.5,360C 334.774,362.959 340.774,371.292 339.5,385C 339.738,399.428 332.738,407.761 318.5,410C 311.472,410.675 304.472,410.508 297.5,409.5C 297.5,392.833 297.5,376.167 297.5,359.5 Z"/></g>
<g><path style="opacity:1" fill="#0271ba" d="M 336.5,383.5 C 324.5,383.5 312.5,383.5 300.5,383.5C 300.5,376.5 300.5,369.5 300.5,362.5C 307.175,362.334 313.842,362.5 320.5,363C 331.917,364.972 337.25,371.806 336.5,383.5 Z"/></g>
<g><path style="opacity:0.97" fill="#e20612" d="M 72.5,381.5 C 80.8333,381.5 89.1667,381.5 97.5,381.5C 96.5005,394.83 95.5005,408.164 94.5,421.5C 83.1667,421.5 71.8333,421.5 60.5,421.5C 63.8979,407.891 67.8979,394.557 72.5,381.5 Z"/></g>
<g><path style="opacity:1" fill="#c71916" d="M 72.5,381.5 C 72.5,381.167 72.5,380.833 72.5,380.5C 83.8382,380.333 95.1716,380.5 106.5,381C 107.252,381.671 107.586,382.504 107.5,383.5C 107.829,396.344 107.495,409.011 106.5,421.5C 102.5,421.5 98.5,421.5 94.5,421.5C 95.5005,408.164 96.5005,394.83 97.5,381.5C 89.1667,381.5 80.8333,381.5 72.5,381.5 Z"/></g>
<g><path style="opacity:1" fill="#c61916" d="M 560.5,380.5 C 560.5,380.833 560.5,381.167 560.5,381.5C 552.167,381.5 543.833,381.5 535.5,381.5C 536.602,394.822 537.602,408.156 538.5,421.5C 534.5,421.5 530.5,421.5 526.5,421.5C 526.5,408.833 526.5,396.167 526.5,383.5C 526.5,382.5 526.5,381.5 526.5,380.5C 537.833,380.5 549.167,380.5 560.5,380.5 Z"/></g>
<g><path style="opacity:0.971" fill="#e20612" d="M 560.5,381.5 C 565.412,394.466 569.412,407.799 572.5,421.5C 561.167,421.5 549.833,421.5 538.5,421.5C 537.602,408.156 536.602,394.822 535.5,381.5C 543.833,381.5 552.167,381.5 560.5,381.5 Z"/></g>
<g><path style="opacity:0.993" fill="#e20a13" d="M 107.5,383.5 C 116.167,383.5 124.833,383.5 133.5,383.5C 137.383,396.903 145.049,407.736 156.5,416C 174.225,426.43 193.225,429.43 213.5,425C 222.412,422.718 231.412,420.884 240.5,419.5C 240.977,407.489 241.644,395.489 242.5,383.5C 250.5,383.5 258.5,383.5 266.5,383.5C 266.5,390.5 266.5,397.5 266.5,404.5C 261.868,405.383 257.202,406.05 252.5,406.5C 252.5,412.5 252.5,418.5 252.5,424.5C 271.84,424.421 291.173,424.754 310.5,425.5C 320.264,425.726 329.931,424.893 339.5,423C 359.606,417.402 370.272,404.235 371.5,383.5C 374.5,383.5 377.5,383.5 380.5,383.5C 388.846,411.982 408.012,426.316 438,426.5C 468.552,426.324 489.052,411.99 499.5,383.5C 508.5,383.5 517.5,383.5 526.5,383.5C 526.5,396.167 526.5,408.833 526.5,421.5C 526.5,427.167 526.5,432.833 526.5,438.5C 477.833,438.5 429.167,438.5 380.5,438.5C 371.735,437.185 363.068,437.185 354.5,438.5C 353.5,438.5 352.5,438.5 351.5,438.5C 327.5,437.167 303.5,437.167 279.5,438.5C 278.833,438.5 278.167,438.5 277.5,438.5C 268.5,437.167 259.5,437.167 250.5,438.5C 202.5,438.5 154.5,438.5 106.5,438.5C 106.5,432.833 106.5,427.167 106.5,421.5C 107.495,409.011 107.829,396.344 107.5,383.5 Z"/></g>
<g><path style="opacity:1" fill="#e20a13" d="M 171.5,383.5 C 188.167,383.5 204.833,383.5 221.5,383.5C 219.013,389.812 216.513,396.145 214,402.5C 212.048,404.894 209.548,406.394 206.5,407C 201.167,407.667 195.833,407.667 190.5,407C 180.748,402.03 174.415,394.197 171.5,383.5 Z"/></g>
<g><path style="opacity:1" fill="#e11316" d="M 300.5,383.5 C 312.5,383.5 324.5,383.5 336.5,383.5C 335.809,400.513 326.809,408.513 309.5,407.5C 306.579,407.476 303.746,407.143 301,406.5C 300.5,398.841 300.334,391.174 300.5,383.5 Z"/></g>
<g><path style="opacity:1" fill="#e20d14" d="M 416.5,383.5 C 432.167,383.5 447.833,383.5 463.5,383.5C 462.232,394.232 456.898,402.065 447.5,407C 437.661,409.998 429.495,407.498 423,399.5C 419.982,394.471 417.816,389.138 416.5,383.5 Z"/></g>
<g><path style="opacity:0.927" fill="#be9b5f" d="M 277.5,438.5 C 269.457,446.909 262.623,456.242 257,466.5C 248.749,461.434 245.749,454.1 248,444.5C 248.573,442.359 249.406,440.359 250.5,438.5C 259.5,437.167 268.5,437.167 277.5,438.5 Z"/></g>
<g><path style="opacity:0.96" fill="#bd9c60" d="M 351.5,438.5 C 351.461,439.583 351.127,440.583 350.5,441.5C 356.596,449.279 360.263,458.112 361.5,468C 361.11,476.132 357.443,482.132 350.5,486C 348.421,486.808 346.421,486.641 344.5,485.5C 342.843,475.548 340.177,465.881 336.5,456.5C 332.959,455.948 329.625,456.781 326.5,459C 331.297,469.23 332.131,479.73 329,490.5C 319.53,502.755 310.53,502.421 302,489.5C 300.464,483.251 300.13,476.917 301,470.5C 302.276,466.177 303.442,461.844 304.5,457.5C 301.325,457.497 298.492,456.497 296,454.5C 291.614,464.368 288.614,474.702 287,485.5C 281.492,487.257 277.159,485.591 274,480.5C 269.683,472.04 269.35,463.373 273,454.5C 275.516,449.99 278.016,445.49 280.5,441C 280.257,440.098 279.923,439.265 279.5,438.5C 303.5,437.167 327.5,437.167 351.5,438.5 Z"/></g>
<g><path style="opacity:0.931" fill="#be9b5f" d="M 380.5,438.5 C 385.878,446.517 385.711,454.517 380,462.5C 378.587,464.414 376.753,465.747 374.5,466.5C 369.005,456.337 362.338,447.003 354.5,438.5C 363.068,437.185 371.735,437.185 380.5,438.5 Z"/></g>
<g><path style="opacity:0.91" fill="#e20612" d="M 128.5,454.5 C 131.785,454.269 134.285,455.603 136,458.5C 141.776,464.943 146.776,471.943 151,479.5C 152.718,485.157 151.218,489.657 146.5,493C 142.27,494.29 137.936,494.79 133.5,494.5C 135.904,502.454 133.237,507.954 125.5,511C 115.757,513.309 107.924,510.476 102,502.5C 97.6942,496.028 93.1942,489.694 88.5,483.5C 89.9285,482.065 91.5952,481.065 93.5,480.5C 95.3228,481.845 97.3228,482.345 99.5,482C 109.049,475.399 118.382,468.566 127.5,461.5C 126.833,460.167 126.167,458.833 125.5,457.5C 126.77,456.712 127.77,455.712 128.5,454.5 Z M 135.5,471.5 C 140.732,474.147 141.732,477.98 138.5,483C 136.557,484.555 134.39,485.722 132,486.5C 130.775,486.138 129.609,485.638 128.5,485C 127.547,483.045 126.213,481.378 124.5,480C 128.597,477.63 132.264,474.797 135.5,471.5 Z M 117.5,484.5 C 125.345,490.048 125.345,495.548 117.5,501C 111.68,501.721 107.68,499.221 105.5,493.5C 109.568,490.479 113.568,487.479 117.5,484.5 Z"/></g>
<g><path style="opacity:0.911" fill="#e20612" d="M 505.5,461.5 C 516.178,459.746 522.678,464.079 525,474.5C 539.75,469.706 546.75,475.039 546,490.5C 545.529,492.246 544.862,493.913 544,495.5C 538.051,503.098 531.884,510.432 525.5,517.5C 520.274,516.651 519.274,514.151 522.5,510C 512.246,502.956 502.079,495.79 492,488.5C 488.936,492.048 485.769,491.881 482.5,488C 487.719,481.782 492.552,475.282 497,468.5C 499.628,465.79 502.461,463.456 505.5,461.5 Z M 505.5,471.5 C 511.312,472.475 514.479,475.809 515,481.5C 514.047,483.455 512.713,485.122 511,486.5C 507.078,483.789 503.244,480.955 499.5,478C 501.027,475.31 503.027,473.143 505.5,471.5 Z M 524.5,482.5 C 536.911,484.903 539.078,490.903 531,500.5C 526.5,497.333 522,494.167 517.5,491C 519.668,488.002 522.001,485.169 524.5,482.5 Z"/></g>
<g><path style="opacity:0.892" fill="#e20612" d="M 159.5,492.5 C 161.153,493.605 162.82,493.771 164.5,493C 173.354,500.688 182.354,508.188 191.5,515.5C 189.862,518.304 188.029,520.971 186,523.5C 184.899,525.394 183.566,526.061 182,525.5C 180.846,524.257 179.512,523.257 178,522.5C 178,519.833 178,517.167 178,514.5C 175.984,512.316 173.817,510.316 171.5,508.5C 168.377,512.125 165.044,515.625 161.5,519C 164.123,522.678 167.123,523.178 170.5,520.5C 172.842,521.336 174.842,522.67 176.5,524.5C 173.428,529.741 169.261,533.741 164,536.5C 158.759,535.461 157.593,532.794 160.5,528.5C 159.573,526.054 157.906,525.221 155.5,526C 152.13,529.035 149.13,532.368 146.5,536C 150.265,538.631 154.098,541.131 158,543.5C 161.179,541.995 164.179,540.995 167,540.5C 169.775,542.51 170.608,545.01 169.5,548C 167.208,549.29 165.208,550.957 163.5,553C 159.308,555.295 155.641,554.628 152.5,551C 143.994,543.991 135.661,536.824 127.5,529.5C 129.74,525.387 132.573,524.72 136,527.5C 144.538,518.631 152.704,509.464 160.5,500C 159.313,498.981 158.313,497.814 157.5,496.5C 158.63,495.378 159.297,494.044 159.5,492.5 Z"/></g>
<g><path style="opacity:0.912" fill="#e20612" d="M 469.5,500.5 C 485.114,498.893 496.281,505.226 503,519.5C 507.124,538.572 499.458,549.239 480,551.5C 463.871,548.705 454.371,539.205 451.5,523C 453.269,512.07 459.269,504.57 469.5,500.5 Z M 468.5,508.5 C 472.105,508.799 475.439,509.965 478.5,512C 482.702,515.867 486.535,520.033 490,524.5C 493.111,528.722 494.111,533.389 493,538.5C 489.448,543.368 485.282,544.202 480.5,541C 471.831,534.992 465.831,526.992 462.5,517C 463.187,513.16 465.187,510.327 468.5,508.5 Z"/></g>
<g><path style="opacity:0.895" fill="#e20612" d="M 197.5,521.5 C 212.226,527.026 226.559,534.026 240.5,542.5C 237.893,548.732 234.56,554.399 230.5,559.5C 227.679,558.926 225.346,557.592 223.5,555.5C 224.833,551.833 226.167,548.167 227.5,544.5C 226.194,541.934 224.361,540.934 222,541.5C 216.483,551.677 210.983,561.843 205.5,572C 207.647,574.237 209.98,576.237 212.5,578C 212.054,579.726 211.221,581.226 210,582.5C 201.075,578.635 191.908,574.469 182.5,570C 181.253,568.542 181.253,567.042 182.5,565.5C 186.165,564.721 189.665,564.721 193,565.5C 199.312,555.208 204.812,544.541 209.5,533.5C 207.488,532.986 205.488,532.82 203.5,533C 201.402,535.854 199.069,538.521 196.5,541C 193.039,541.874 190.039,541.04 187.5,538.5C 191.097,532.97 194.43,527.304 197.5,521.5 Z"/></g>
<g><path style="opacity:0.907" fill="#e20612" d="M 436.5,524.5 C 438.451,524.227 439.951,524.893 441,526.5C 440.605,529.306 439.939,531.972 439,534.5C 443.833,544.167 448.667,553.833 453.5,563.5C 455.833,564.167 458.167,564.833 460.5,565.5C 461.428,566.768 461.595,568.101 461,569.5C 455.575,572.129 450.075,574.629 444.5,577C 440.872,578.316 438.539,577.149 437.5,573.5C 439.167,572.5 440.5,571.167 441.5,569.5C 439.333,565.167 437.167,560.833 435,556.5C 429.761,558.534 424.928,561.2 420.5,564.5C 422.5,568.5 424.5,572.5 426.5,576.5C 428.343,576.755 430.343,576.922 432.5,577C 433.765,578.337 434.265,579.837 434,581.5C 427.353,584.907 420.519,587.907 413.5,590.5C 409.163,587.994 408.997,585.661 413,583.5C 413.667,582.5 413.667,581.5 413,580.5C 408.167,570.833 403.333,561.167 398.5,551.5C 396.167,550.833 393.833,550.167 391.5,549.5C 390.572,548.232 390.405,546.899 391,545.5C 398.052,541.786 405.052,538.786 412,536.5C 415.636,539.989 415.136,542.822 410.5,545C 412.794,549.088 414.961,553.255 417,557.5C 421.98,554.93 426.814,552.263 431.5,549.5C 429.667,545.833 427.833,542.167 426,538.5C 423.88,538.374 421.714,538.041 419.5,537.5C 418.96,536.252 418.293,535.085 417.5,534C 423.894,530.803 430.227,527.636 436.5,524.5 Z"/></g>
<g><path style="opacity:0.902" fill="#e20612" d="M 245.5,543.5 C 257.558,546.262 269.892,549.262 282.5,552.5C 283.452,556.161 283.285,559.828 282,563.5C 275.697,565.52 272.197,563.187 271.5,556.5C 268.569,555.727 265.736,554.727 263,553.5C 261.501,558.161 260.001,562.828 258.5,567.5C 259.559,568.696 260.893,569.363 262.5,569.5C 264.117,567.609 266.117,566.276 268.5,565.5C 270.512,565.84 272.512,566.173 274.5,566.5C 273.868,571.862 272.535,577.029 270.5,582C 267.366,582.79 264.366,582.457 261.5,581C 262.554,579.612 262.72,578.112 262,576.5C 260.333,575.833 258.667,575.167 257,574.5C 255.198,579.708 254.031,585.041 253.5,590.5C 257.262,590.652 260.928,591.319 264.5,592.5C 267.151,590.35 269.651,588.017 272,585.5C 272.667,586.833 273.333,586.833 274,585.5C 276.212,586.12 278.046,587.287 279.5,589C 278.296,593.918 275.963,598.085 272.5,601.5C 259.537,598.176 246.537,595.009 233.5,592C 232.253,590.542 232.253,589.042 233.5,587.5C 235.396,586.534 237.396,586.201 239.5,586.5C 242.493,575.185 245.493,563.852 248.5,552.5C 246.895,550.864 245.561,549.031 244.5,547C 244.648,545.744 244.982,544.577 245.5,543.5 Z"/></g>
<g><path style="opacity:0.912" fill="#e20612" d="M 362.5,550.5 C 365.448,550.223 368.281,550.556 371,551.5C 378.333,563.5 385.667,575.5 393,587.5C 394.789,589.229 396.956,589.896 399.5,589.5C 399.357,591.262 399.691,592.929 400.5,594.5C 392.326,596.868 383.993,598.202 375.5,598.5C 375.579,597.07 375.246,595.736 374.5,594.5C 376.046,593.316 377.713,592.316 379.5,591.5C 378.376,590.086 377.376,588.586 376.5,587C 371.518,587.272 366.518,587.772 361.5,588.5C 361.007,590.806 360.674,593.139 360.5,595.5C 362.5,595.5 364.5,595.5 366.5,595.5C 366.5,597.5 366.5,599.5 366.5,601.5C 360.667,602.433 354.834,603.433 349,604.5C 347.893,604.415 346.893,604.081 346,603.5C 345.506,601.866 345.34,600.199 345.5,598.5C 346.822,598.67 347.989,598.337 349,597.5C 351.441,583.185 353.775,568.852 356,554.5C 356.374,553.584 356.874,552.75 357.5,552C 359.382,551.802 361.048,551.302 362.5,550.5 Z M 363.5,564.5 C 366.726,569.271 369.726,574.271 372.5,579.5C 369.244,580.751 365.91,581.751 362.5,582.5C 362.167,582.167 361.833,581.833 361.5,581.5C 362.495,575.886 363.162,570.22 363.5,564.5 Z"/></g>
<g><path style="opacity:0.923" fill="#e20612" d="M 292.5,554.5 C 301.839,554.334 311.173,554.5 320.5,555C 336.042,556.91 340.542,565.076 334,579.5C 331.635,582.869 328.468,585.036 324.5,586C 319.845,586.499 315.179,586.666 310.5,586.5C 310.5,590.5 310.5,594.5 310.5,598.5C 313.249,598.274 315.916,598.607 318.5,599.5C 319.452,601.045 319.785,602.712 319.5,604.5C 309.809,604.658 300.143,604.325 290.5,603.5C 290.506,599.898 292.34,597.898 296,597.5C 297.138,585.192 297.638,572.859 297.5,560.5C 293.092,560.938 291.425,558.938 292.5,554.5 Z M 311.5,560.5 C 318.741,559.576 322.407,562.743 322.5,570C 322.517,578.152 318.517,581.985 310.5,581.5C 311.089,574.515 311.422,567.515 311.5,560.5 Z"/></g>
</svg>
